<?xml version="1.0" encoding="UTF-8" standalone="no" ?>
<!DOCTYPE svg PUBLIC "-//W3C//DTD SVG 1.1//EN" "http://www.w3.org/Graphics/SVG/1.1/DTD/svg11.dtd">
<svg xmlns="http://www.w3.org/2000/svg" xmlns:xlink="http://www.w3.org/1999/xlink" version="1.1" width="1080" height="1080" viewBox="0 0 1080 1080" xml:space="preserve">
<desc>Created with Fabric.js 5.2.4</desc>
<defs>
</defs>
<g transform="matrix(1 0 0 1 540 540)" id="b28cfbd3-52a2-4dde-9205-6a1a8ec2fa22"  >
<rect style="stroke: none; stroke-width: 1; stroke-dasharray: none; stroke-linecap: butt; stroke-dashoffset: 0; stroke-linejoin: miter; stroke-miterlimit: 4; fill: rgb(255,255,255); fill-rule: nonzero; opacity: 1;" vector-effect="non-scaling-stroke"  x="-540" y="-540" rx="0" ry="0" width="1080" height="1080" />
</g>
<g transform="matrix(1 0 0 1 540 540)" id="c605f5e4-1ce8-4a62-be91-ce7efebc3412"  >
</g>
<g transform="matrix(1 0 0 1 540 540)" id="548cac44-51f0-4f33-8a92-0dcd9217c576"  >
<path style="stroke: rgb(0,0,0); stroke-width: 0; stroke-dasharray: none; stroke-linecap: butt; stroke-dashoffset: 0; stroke-linejoin: miter; stroke-miterlimit: 4; fill: rgb(0,0,0); fill-rule: nonzero; opacity: 1;" vector-effect="non-scaling-stroke"  transform=" translate(-8, -8)" d="M 2 15.5 L 2 2 C 2 0.8954305003384131 2.895430500338413 0 4 0 L 12 0 C 13.104569499661586 0 14 0.8954305003384126 14 1.9999999999999996 L 14 15.5 C 14.000129247732781 15.676650312726156 13.907035813240542 15.840258908570448 13.75510837596357 15.930388834198274 C 13.603180938686599 16.0205187598261 13.414969768354911 16.02379222008681 13.26 15.939 L 8 13.069 L 2.74 15.939 C 2.5850302316450886 16.02379222008681 2.3968190613134013 16.0205187598261 2.24489162403643 15.930388834198274 C 2.0929641867594584 15.840258908570448 1.9998707522672186 15.676650312726156 2 15.5 z M 8.5 4.5 C 8.5 4.223857625084603 8.276142374915397 4 8 4 C 7.723857625084603 4 7.5 4.223857625084603 7.5 4.5 L 7.5 6 L 6 6 C 5.723857625084603 6 5.5 6.223857625084603 5.5 6.5 C 5.5 6.776142374915397 5.723857625084603 7 6 7 L 7.5 7 L 7.5 8.5 C 7.5 8.776142374915397 7.723857625084603 9 8 9 C 8.276142374915397 9 8.5 8.776142374915397 8.5 8.5 L 8.5 7 L 10 7 C 10.276142374915397 7 10.5 6.776142374915397 10.5 6.5 C 10.5 6.223857625084603 10.276142374915397 6 10 6 L 8.5 6 L 8.5 4.5 z" stroke-linecap="round" />
</g>
</svg>